<?xml version="1.0" encoding="UTF-8" standalone="no"?> <!-- Created with Vectornator (http://vectornator.io/) --><!DOCTYPE svg PUBLIC "-//W3C//DTD SVG 1.1//EN" "http://www.w3.org/Graphics/SVG/1.1/DTD/svg11.dtd">
<svg height="100%" stroke-miterlimit="10" style="fill-rule:nonzero;clip-rule:evenodd;stroke-linecap:round;stroke-linejoin:round;" version="1.1" viewBox="0 0 1080 1080" width="100%" xml:space="preserve" xmlns="http://www.w3.org/2000/svg" xmlns:vectornator="http://vectornator.io" xmlns:xlink="http://www.w3.org/1999/xlink">
<metadata>
<vectornator:setting key="IsTimeLapseWatermarkDisabled" value="false"/>
<vectornator:setting key="UndoHistoryDisabled" value="true"/>
<vectornator:setting key="VNDimensionsVisible" value="true"/>
<vectornator:setting key="VNSnapToGuides" value="true"/>
<vectornator:setting key="WDCMYKEnabledKey" value="false"/>
<vectornator:setting key="WDDisplayWhiteBackground" value="false"/>
<vectornator:setting key="WDDynamicGuides" value="false"/>
<vectornator:setting key="WDGuidesVisible" value="true"/>
<vectornator:setting key="WDIsolateActiveLayer" value="false"/>
<vectornator:setting key="WDOutlineMode" value="false"/>
<vectornator:setting key="WDRulersVisible" value="true"/>
<vectornator:setting key="WDSnapToEdges" value="false"/>
<vectornator:setting key="WDSnapToGrid" value="false"/>
<vectornator:setting key="WDSnapToPoints" value="false"/>
<vectornator:setting key="WDUnits" value="Millimeters"/>
</metadata>
<defs/>
<g id="Layer-1" vectornator:layerName="Layer 1">
<path d="M272.547 337.365L1052.88 337.365L1052.88 337.365L1052.88 459.653L1052.88 459.653L272.547 459.653L272.547 459.653L272.547 337.365L272.547 337.365Z" fill="#000000" fill-rule="evenodd" opacity="1" stroke="none"/>
<path d="M273.555 606.398L1053.88 606.398L1053.88 606.398L1053.88 728.686L1053.88 728.686L273.555 728.686L273.555 728.686L273.555 606.398L273.555 606.398Z" fill="#000000" fill-rule="evenodd" opacity="1" stroke="none"/>
<path d="M84.6658 513.392L860.039 513.392L860.039 513.392L860.039 552.524L860.039 552.524L84.6658 552.524L84.6658 552.524L84.6658 513.392L84.6658 513.392Z" fill="#000000" fill-rule="evenodd" opacity="1" stroke="none"/>
<path d="M28.5484 532.958C28.5484 502.149 53.8457 477.173 85.0516 477.173C116.257 477.173 141.555 502.149 141.555 532.958C141.555 563.767 116.257 588.743 85.0516 588.743C53.8457 588.743 28.5484 563.767 28.5484 532.958Z" fill="#000000" fill-rule="evenodd" opacity="1" stroke="none"/>
</g>
</svg>
